<?xml version="1.0" encoding="UTF-8"?>
<svg xmlns="http://www.w3.org/2000/svg" width="2004" height="532" viewBox="0 0 2004 532" font-family="ui-sans-serif, system-ui, -apple-system, 'Segoe UI', Roboto, 'Helvetica Neue', Arial, sans-serif" style="background:#f8fafc">
  <defs>
    <marker id="ah-solid" markerWidth="9" markerHeight="9" refX="8" refY="3" orient="auto"><path d="M0,0 L0,6 L8,3 z" fill="#1f2937"/></marker>
    <marker id="ah-thin" markerWidth="9" markerHeight="9" refX="8" refY="3" orient="auto"><path d="M0,0 L0,6 L8,3 z" fill="#374151"/></marker>
    <marker id="ah-stream" markerWidth="9" markerHeight="9" refX="8" refY="3" orient="auto"><path d="M0,0 L0,6 L8,3 z" fill="#5C5C00"/></marker>
    <marker id="ah-axil" markerWidth="9" markerHeight="9" refX="8" refY="3" orient="auto"><path d="M0,0 L0,6 L8,3 z" fill="#0D47A1"/></marker>
    <marker id="ah-tilelink" markerWidth="9" markerHeight="9" refX="8" refY="3" orient="auto"><path d="M0,0 L0,6 L8,3 z" fill="#00796B"/></marker>
    <marker id="ah-cdc" markerWidth="9" markerHeight="9" refX="8" refY="3" orient="auto"><path d="M0,0 L0,6 L8,3 z" fill="#6A1B9A"/></marker>
    <marker id="ah-open" markerWidth="9" markerHeight="9" refX="8" refY="3" orient="auto"><path d="M0.5,0.5 L0.5,5.5 L8,3 z" fill="#f8fafc" stroke="#1f2937" stroke-width="1"/></marker>
    <linearGradient id="grad-cpu_axi" x1="0%" y1="0%" x2="100%" y2="0%"><stop offset="50%" stop-color="#42A5F5"/><stop offset="50%" stop-color="#66BB6A"/></linearGradient>
    <linearGradient id="grad-ddr_ctrl" x1="0%" y1="0%" x2="100%" y2="0%"><stop offset="50%" stop-color="#66BB6A"/><stop offset="50%" stop-color="#EF5350"/></linearGradient>
    <linearGradient id="grad-apb_br" x1="0%" y1="0%" x2="100%" y2="0%"><stop offset="50%" stop-color="#66BB6A"/><stop offset="50%" stop-color="#FFA726"/></linearGradient>
  </defs>
  <rect width="2004" height="532" fill="#f8fafc" id="_canvas_bg"/>
  <text x="866.0" y="24" text-anchor="middle" font-size="21" font-weight="600" fill="#1f2937" letter-spacing="0.2">Application SoC top-level (depth 1)</text>
  <rect id="cpu" x="36" y="66" width="220" height="90" fill="#42A5F5" stroke="#0D47A1" stroke-width="1.4" rx="8"/>
  <text x="146" y="109" text-anchor="middle" font-size="18" font-weight="600" fill="#1f2937">Cortex-A53 x2</text>
  <text x="146" y="125" text-anchor="middle" font-size="15" font-style="italic" fill="#1f2937" opacity="0.85">dual-core</text>
  <rect id="l2" x="396" y="66" width="220" height="90" fill="#42A5F5" stroke="#0D47A1" stroke-width="1.4" rx="8"/>
  <text x="506" y="109" text-anchor="middle" font-size="18" font-weight="600" fill="#1f2937">L2 cache</text>
  <text x="506" y="125" text-anchor="middle" font-size="15" font-style="italic" fill="#1f2937" opacity="0.85">1 MB shared</text>
  <rect id="cpu_axi" x="756" y="66" width="220" height="90" fill="url(#grad-cpu_axi)" stroke="#1f2937" stroke-width="1.4" rx="8"/>
  <text x="866" y="109" text-anchor="middle" font-size="18" font-weight="600" fill="#1f2937">CPU AXI bridge</text>
  <text x="866" y="125" text-anchor="middle" font-size="15" font-style="italic" fill="#1f2937" opacity="0.85">clock bridge</text>
  <rect id="ic" x="1116" y="66" width="220" height="90" fill="#66BB6A" stroke="#1B5E20" stroke-width="1.4" rx="8"/>
  <text x="1226" y="116" text-anchor="middle" font-size="18" font-weight="600" fill="#1f2937">AXI Interconnect</text>
  <rect id="sram" x="1476" y="66" width="220" height="90" fill="#66BB6A" stroke="#1B5E20" stroke-width="1.4" rx="8"/>
  <text x="1586" y="109" text-anchor="middle" font-size="18" font-weight="600" fill="#1f2937">OCM</text>
  <text x="1586" y="125" text-anchor="middle" font-size="15" font-style="italic" fill="#1f2937" opacity="0.85">256 KB on-chip</text>
  <rect id="dma" x="396" y="236" width="220" height="90" fill="#66BB6A" stroke="#1B5E20" stroke-width="1.4" rx="8"/>
  <text x="506" y="279" text-anchor="middle" font-size="18" font-weight="600" fill="#1f2937">DMA</text>
  <text x="506" y="295" text-anchor="middle" font-size="15" font-style="italic" fill="#1f2937" opacity="0.85">8 channels</text>
  <rect id="ddr_ctrl" x="1116" y="236" width="220" height="90" fill="url(#grad-ddr_ctrl)" stroke="#1f2937" stroke-width="1.4" rx="8"/>
  <text x="1226" y="279" text-anchor="middle" font-size="18" font-weight="600" fill="#1f2937">DDR4 Ctrl</text>
  <text x="1226" y="295" text-anchor="middle" font-size="15" font-style="italic" fill="#1f2937" opacity="0.85">PHY + ctrl</text>
  <rect id="ddr3" x="1476" y="236" width="220" height="90" fill="#E0E0E0" stroke="#424242" stroke-width="1.4" rx="8"/>
  <text x="1586" y="279" text-anchor="middle" font-size="18" font-weight="600" fill="#1f2937">DDR4 SDRAM</text>
  <text x="1586" y="295" text-anchor="middle" font-size="15" font-style="italic" fill="#1f2937" opacity="0.85">off-chip</text>
  <rect id="apb_br" x="396" y="406" width="220" height="90" fill="url(#grad-apb_br)" stroke="#1f2937" stroke-width="1.4" rx="8"/>
  <text x="506" y="449" text-anchor="middle" font-size="18" font-weight="600" fill="#1f2937">APB bridge</text>
  <text x="506" y="465" text-anchor="middle" font-size="15" font-style="italic" fill="#1f2937" opacity="0.85">axi -&gt; apb</text>
  <rect id="periph" x="756" y="406" width="220" height="90" fill="#FFA726" stroke="#E65100" stroke-width="1.4" rx="8"/>
  <text x="866" y="449" text-anchor="middle" font-size="18" font-weight="600" fill="#1f2937">Peripherals</text>
  <text x="866" y="465" text-anchor="middle" font-size="15" font-style="italic" fill="#1f2937" opacity="0.85">UART x4 / SPI x2 / I2C / GPIO</text>
  <path id="edge_cpu_to_l2" d="M 256.0,111.0 L 326.0,111.0 L 396.0,111.0" stroke="#1f2937" stroke-width="2.5" fill="none" marker-end="url(#ah-solid)"/>
  <rect x="259.0" y="92.2" width="96.8" height="19.0" fill="#ffffff" stroke="#e2e8f0" stroke-width="0.6" rx="3"/>
  <text x="307.4" y="107.0" text-anchor="middle" font-size="15" fill="#1f2937">AXI-MM 128b</text>
  <path id="edge_l2_to_cpu_axi" d="M 616.0,111.0 L 686.0,111.0 L 756.0,111.0" stroke="#1f2937" stroke-width="2.5" fill="none" marker-end="url(#ah-solid)"/>
  <rect x="619.0" y="92.2" width="96.8" height="19.0" fill="#ffffff" stroke="#e2e8f0" stroke-width="0.6" rx="3"/>
  <text x="667.4" y="107.0" text-anchor="middle" font-size="15" fill="#1f2937">AXI-MM 128b</text>
  <path id="edge_cpu_axi_to_ic" d="M 976.0,111.0 L 1046.0,111.0 L 1116.0,111.0" stroke="#1f2937" stroke-width="2.5" fill="none" marker-end="url(#ah-solid)"/>
  <rect x="979.0" y="92.2" width="96.8" height="19.0" fill="#ffffff" stroke="#e2e8f0" stroke-width="0.6" rx="3"/>
  <text x="1027.4" y="107.0" text-anchor="middle" font-size="15" fill="#1f2937">AXI-MM 128b</text>
  <path id="edge_ic_to_sram" d="M 1336.0,111.0 L 1406.0,111.0 L 1476.0,111.0" stroke="#1f2937" stroke-width="2.5" fill="none" marker-end="url(#ah-solid)"/>
  <rect x="1339.0" y="92.2" width="88.5" height="19.0" fill="#ffffff" stroke="#e2e8f0" stroke-width="0.6" rx="3"/>
  <text x="1383.2" y="107.0" text-anchor="middle" font-size="15" fill="#1f2937">AXI-MM 64b</text>
  <path id="edge_ic_to_dma" d="M 1226.0,156.0 L 1226.0,190.0 L 506.0,190.0 L 506.0,236.0" stroke="#0D47A1" stroke-width="2.5" fill="none" marker-end="url(#ah-axil)"/>
  <rect x="465.9" y="192.1" width="80.2" height="19.0" fill="#ffffff" stroke="#e2e8f0" stroke-width="0.6" rx="3"/>
  <text x="506.0" y="206.8" text-anchor="middle" font-size="15" fill="#1f2937">AXI-L 32b</text>
  <path id="edge_ic_to_ddr_ctrl" d="M 1290.0,156.0 L 1290.0,236.0" stroke="#1f2937" stroke-width="2.5" fill="none" marker-end="url(#ah-solid)"/>
  <rect x="1241.6" y="184.2" width="96.8" height="19.0" fill="#ffffff" stroke="#e2e8f0" stroke-width="0.6" rx="3"/>
  <text x="1290.0" y="199.0" text-anchor="middle" font-size="15" fill="#1f2937">AXI-MM 256b</text>
  <path id="edge_ddr_ctrl_to_ddr3" d="M 1336.0,281.0 L 1406.0,281.0 L 1476.0,281.0" stroke="#374151" stroke-width="1.4" fill="none" marker-end="url(#ah-thin)"/>
  <rect x="1339.0" y="262.2" width="80.2" height="19.0" fill="#ffffff" stroke="#e2e8f0" stroke-width="0.6" rx="3"/>
  <text x="1379.1" y="277.0" text-anchor="middle" font-size="15" fill="#1f2937">DQ/CK/cmd</text>
  <path id="edge_ic_to_apb_br" d="M 1336.0,126.0 L 1430.0,126.0 L 1430.0,550.0 L 506.0,550.0 L 506.0,496.0" stroke="#0D47A1" stroke-width="2.5" fill="none" marker-end="url(#ah-axil)"/>
  <rect x="927.9" y="531.2" width="80.2" height="19.0" fill="#ffffff" stroke="#e2e8f0" stroke-width="0.6" rx="3"/>
  <text x="968.0" y="546.0" text-anchor="middle" font-size="15" fill="#1f2937">AXI-L 32b</text>
  <path id="edge_apb_br_to_periph" d="M 616.0,466.0 L 686.0,466.0 L 686.0,451.0 L 756.0,451.0" stroke="#0D47A1" stroke-width="2.5" fill="none" marker-end="url(#ah-axil)"/>
  <rect x="666.9" y="440.2" width="80.2" height="19.0" fill="#ffffff" stroke="#e2e8f0" stroke-width="0.6" rx="3"/>
  <text x="707.0" y="455.0" text-anchor="middle" font-size="15" fill="#1f2937">AXI-L 32b</text>
  <rect id="legend_card" x="1748" y="46" width="240" height="234" fill="#ffffff" stroke="#cbd5e1" stroke-width="1" rx="6"/>
  <text x="1868" y="74" text-anchor="middle" font-size="13" font-weight="700" fill="#1f2937" letter-spacing="0.4">Clock domains</text>
  <rect x="1762" y="86" width="22" height="14" fill="#42A5F5" stroke="#0D47A1" stroke-width="1.2" rx="2"/>
  <text x="1794" y="98" font-size="13" fill="#1f2937">cpu  1500 MHz</text>
  <rect x="1762" y="108" width="22" height="14" fill="#66BB6A" stroke="#1B5E20" stroke-width="1.2" rx="2"/>
  <text x="1794" y="120" font-size="13" fill="#1f2937">axi  500 MHz</text>
  <rect x="1762" y="130" width="22" height="14" fill="#EF5350" stroke="#B71C1C" stroke-width="1.2" rx="2"/>
  <text x="1794" y="142" font-size="13" fill="#1f2937">ddr  800 MHz</text>
  <rect x="1762" y="152" width="22" height="14" fill="#FFA726" stroke="#E65100" stroke-width="1.2" rx="2"/>
  <text x="1794" y="164" font-size="13" fill="#1f2937">apb  100 MHz</text>
  <text x="1868" y="192" text-anchor="middle" font-size="13" font-weight="700" fill="#1f2937" letter-spacing="0.4">Connection styles</text>
  <path id="legend-arrow-axi-mm" d="M 1762,211.0 L 1804,211.0" stroke="#1f2937" stroke-width="2.5" fill="none" marker-end="url(#ah-solid)"/>
  <text x="1814" y="216" font-size="13" fill="#1f2937">AXI-MM data bus</text>
  <path id="legend-arrow-axi-lite" d="M 1762,233.0 L 1804,233.0" stroke="#0D47A1" stroke-width="2.5" fill="none" marker-end="url(#ah-axil)"/>
  <text x="1814" y="238" font-size="13" fill="#1f2937">AXI4-Lite control</text>
  <path id="legend-arrow-generic" d="M 1762,255.0 L 1804,255.0" stroke="#374151" stroke-width="1.4" fill="none" marker-end="url(#ah-thin)"/>
  <text x="1814" y="260" font-size="13" fill="#1f2937">Generic / discrete</text>
</svg>